<svg xmlns="http://www.w3.org/2000/svg" viewBox="0 0 512 512">
  <!-- Background circle - cream -->
  <circle cx="256" cy="256" r="256" fill="#FFFDF7"/>

  <!-- Border ring - gold -->
  <circle cx="256" cy="256" r="240" fill="none" stroke="#D4A574" stroke-width="12"/>

  <!-- Material Icons sports_esports - scaled and centered -->
  <g transform="translate(128, 128) scale(10.67)">
    <path fill="#D4A574" d="M21.58 16.09l-1.09-7.66C20.21 6.46 18.52 5 16.53 5H7.47C5.48 5 3.79 6.46 3.51 8.43l-1.09 7.66C2.2 17.63 3.39 19 4.94 19h0c.68 0 1.32-.27 1.8-.75L9 16h6l2.25 2.25c.48.48 1.13.75 1.8.75h0C20.61 19 21.8 17.63 21.58 16.09zM11 11H9v2H8v-2H6v-1h2V8h1v2h2V11zM15 10c-.55 0-1-.45-1-1s.45-1 1-1s1 .45 1 1S15.55 10 15 10zM17 13c-.55 0-1-.45-1-1s.45-1 1-1s1 .45 1 1S17.55 13 17 13z"/>
  </g>
</svg>
